<svg version="1" xmlns="http://www.w3.org/2000/svg" width="2133.333" height="2133.333" viewBox="0 0 1600.000000 1600.000000"><path d="M733.8 100.2c0 .2-.2 187.4-.3 416.1-.1 300.9-.4 416-1.2 416.5-.6.4-120.6.7-266.7.6H200v100.1l72.3 72.2c39.7 39.7 76.4 76.5 81.6 81.7l9.4 9.5-6.9-1.6c-34.2-7.8-64-26.6-83.6-52.8-3.3-4.4-6.1-8.1-6.2-8.2-.1-.2-2.2 2.7-4.5 6.2-5.6 8.4-18.5 21.6-28.1 28.7-7.6 5.7-24.6 15.8-26.5 15.8-.5 0-2.3.7-4 1.6-12.9 6.8-42.4 12.8-65 13.3l-5 .1-.3 133.5-.3 133.5h1334.2l-.3-133.1c-.1-73.2-.5-133.2-.8-133.4-.3-.2-5.1-.6-10.6-1-20.8-1.2-32.9-3.5-50.9-9.7-13.3-4.5-31.4-14.5-42-23-8.1-6.6-20.4-19.8-24.8-26.7-3.8-5.8-4.2-6.2-5.5-4.5-6.9 9.8-12 16-18.4 22.2-22.7 22.3-53.8 36.4-90.3 40.9-7.6 1-46.2.9-47.2-.1-.7-.7.7-2.2 10.2-10.1 3.3-2.7 8-6.8 10.5-9 8.1-7.2 46.4-45.8 55.1-55.4 4.6-5.2 9.5-10.6 10.9-12.1 1.4-1.4 3.5-3.8 4.7-5.3 1.2-1.5 4.4-5.4 7.1-8.5 2.8-3.1 8.9-10.4 13.7-16.2 4.8-5.8 9.7-11.6 10.8-13 5.8-6.6 35.6-44.7 41.4-52.7 1-1.4 2.8-3.8 4-5.2 2-2.6 8.8-11.9 26.6-36.6 8.6-12 12.6-17.8 21.7-31.1l6.8-10h-299.9l-299.9.1v-67l2.8-.1c3.3-.1 24.7-1.4 32.2-1.9 3-.2 10-.6 15.5-1 5.5-.3 13.2-.8 17-1 3.9-.3 10.8-.7 15.5-1 4.7-.3 11.9-.7 16-1 4.1-.3 11.3-.7 16-1 4.7-.3 11.9-.7 16-1 4.1-.3 10.9-.7 15-1 15.3-.9 27.6-1.6 32-2 2.5-.2 9.9-.7 16.5-1.1 6.6-.4 13.6-.8 15.5-.9 1.9-.1 9.4-.5 16.5-.9 7.2-.4 14.7-.9 16.7-1.1 2-.2 8.8-.7 15-1 6.2-.3 13.8-.8 16.8-1 3-.2 10.2-.7 16-1 5.8-.4 13-.8 16-1 3-.2 10.2-.6 16-1 5.8-.4 13-.8 16-1 3-.2 10.2-.6 16-1 5.8-.3 13-.8 16-1 3-.2 10.2-.7 16-1 5.8-.3 13-.8 16-1 3-.2 10-.7 15.5-1 5.5-.3 12.7-.8 16-1 3.3-.3 10.7-.7 16.5-1 5.8-.3 13.2-.8 16.5-1 8.9-.7 23.2-1.6 30-2 22.2-1.1 34.4-2 34.9-2.6.2-.2-7-9.2-16.1-19.9-20.2-23.9-35.5-42.1-54.9-65.1-8.2-9.7-21.4-25.4-29.4-34.9s-15.9-18.9-17.6-20.9c-2.7-3.1-33.8-40.1-67.9-80.6-19.5-23.1-38.2-45.4-52.7-62.6-8-9.6-19-22.6-24.3-28.9-5.3-6.3-10.6-12.6-11.8-14-1.9-2.2-6.2-7.3-13.9-16.5-.9-1.1-10.8-12.8-22-26-11.2-13.3-28.2-33.5-37.8-45-9.6-11.6-17.7-21.2-18-21.5-.3-.3-3-3.4-6-7s-5.7-6.7-6-7c-.3-.3-3.7-4.3-7.5-9s-7.2-8.7-7.5-9c-.3-.3-6.4-7.5-13.5-16s-13.2-15.7-13.5-16c-.3-.3-4.8-5.7-10.1-12-5.3-6.4-10.2-12.2-11-13-.8-.8-8-9.4-16-19-12.5-14.9-50.5-60.2-57.2-68-1.2-1.4-5.7-6.7-9.9-11.7l-7.8-9.1V100h-33c-18.1 0-33.1.1-33.2.2z"/><path d="M655.7 180.7c-11.7 15.1-39.2 50.4-46.3 59.6-4.6 5.9-53.2 68.4-54.6 70.2-1.4 1.7-16.1 20.6-21.8 28-5.2 6.7-38.7 49.7-43.6 56-1.3 1.6-11.6 14.9-22.9 29.5-11.3 14.6-21.1 27.2-21.8 28-.7.8-8.2 10.5-16.7 21.5s-15.7 20.2-16 20.5c-.3.3-1.9 2.3-3.5 4.5s-3.5 4.7-4.2 5.5c-1.8 2.2-21.6 27.6-39.3 50.5-8.5 11-16 20.7-16.7 21.5-.6.8-4.7 6-9 11.5s-8.1 10.4-8.6 11c-1.2 1.5-51.8 66.6-59 76-3.4 4.4-6.7 8.7-7.4 9.5-.7.8-4.9 6.2-9.4 12-4.4 5.8-9.2 11.8-10.5 13.5-1.3 1.6-9.1 11.8-17.4 22.5-8.4 10.7-15.9 20.4-16.8 21.5-.9 1.1-3.6 4.6-5.9 7.7l-4.2 5.6 3.2.6c1.8.3 4.1.8 5.2 1 28 6.1 66.7 14.4 69.8 15 1.2.3 5.6 1.2 9.7 2.1 4.1.9 8.6 1.9 9.9 2.1 1.4.3 9.5 2 18.1 3.9 8.6 1.9 16.7 3.6 18.1 3.9 1.3.2 5.8 1.2 9.9 2.1 4.1.9 8.4 1.8 9.5 2.1 1.1.2 3.1.6 4.5.9 1.4.3 4.5 1 7 1.5s9.9 2.1 16.5 3.6c6.6 1.4 14.9 3.2 18.5 4 3.6.7 7.4 1.5 8.5 1.8 1.1.2 14.9 3.1 30.6 6.5 15.7 3.3 29.2 6.3 30 6.5.8.3 2.8.7 4.4.9 1.7.3 8.2 1.6 14.5 3 15.7 3.5 39.2 8.5 47.8 10.3 1.5.3 5.5 1.1 8.8 1.9 3.4.8 7.3 1.6 8.5 1.9 2 .3 17 3.5 24.4 5.2 1.1.3 4 .9 6.5 1.4 4.2.8 31 6.6 35.5 7.6 1.1.3 4.9 1.1 8.5 1.8 29.9 6.3 36.5 7.6 37.5 7.6.8 0 1.1-85.2 1.1-349.5V167c-.1 0-5 6.2-10.9 13.7z"/></svg>